<svg xmlns="http://www.w3.org/2000/svg" width="22.524" height="22.521" viewBox="0 0 22.524 22.521">
  <g id="auction" transform="translate(0 -0.031)">
    <g id="Group_10" data-name="Group 10" transform="translate(0 17.785)">
      <g id="Group_9" data-name="Group 9">
        <path id="Path_16" data-name="Path 16" d="M12.949,387.484H1.691A1.692,1.692,0,0,0,0,389.175v3.076H14.64v-3.076A1.692,1.692,0,0,0,12.949,387.484Z" transform="translate(0 -387.484)" fill="#d44753"/>
      </g>
    </g>
    <g id="Group_12" data-name="Group 12" transform="translate(2.76 0.03)">
      <g id="Group_11" data-name="Group 11" transform="translate(0 0)">
        <path id="Path_17" data-name="Path 17" d="M79.692,18.024,69.416,7.747,71.4,5.766a.833.833,0,0,0,1.14-1.214L68.262.276a.831.831,0,0,0-1.175,1.175l-.035-.035-5.434,5.43.035.039a.831.831,0,0,0-1.175,1.175l4.276,4.279a.834.834,0,0,0,1.179-1.179l.035.035,1.985-1.981L78.225,19.488a1.036,1.036,0,1,0,1.468-1.464Z" transform="translate(-60.231 -0.03)" fill="#d44753"/>
      </g>
    </g>
  </g>
</svg>
