<svg xmlns="http://www.w3.org/2000/svg" id="benq-1" width="150.203" height="42.958" viewBox="0 0 150.203 42.958">
    <defs>
        <style>
            .cls-1{fill:none}.cls-2{fill:#444}
        </style>
    </defs>
    <path id="Rectangle_55" d="M0 0h150.203v42.958H0z" class="cls-1" data-name="Rectangle 55"/>
    <path id="Path_23" d="M25.51 15.4c1.851-.463 4.23-3.5 4.23-7.138S26.832.4 19.562.4H0v32.32h18.373c9.385 0 12.293-4.164 12.293-9.649S25.51 15.4 25.51 15.4zM9.12 8.225h8.393a2.417 2.417 0 0 1 2.6 2.313c0 .859-.222 2.511-2.668 2.511H9.12zm7.8 17.351h-8V19.1h7.943c1.784 0 3.827.727 3.827 3.106s-1.128 3.371-3.771 3.371zM46.461.294a14.66 14.66 0 0 0-9.319 3.611c-3.929 3.226-5.431 8.393-5.365 13.416.078 5.864 2.944 11.7 7.564 13.8 10.9 4.957 19.617 1.34 22.789-1.766v-7.077a15.877 15.877 0 0 1-12.755 3.569c-7.931-1.124-7.8-6.212-7.865-6.873h21.083c0-.006 1.907-18.68-16.132-18.68zm-4.752 12.6a5.618 5.618 0 0 1 5.816-4.758c4.428 0 5.287 4.758 5.287 4.758zM83.543.4c-3.911.126-6.849 2.187-9.319 5.245V1.322h-9.45v31.392h9.451V12.851c1.508-2.163 3.935-5.017 6.345-5.179 2.5-.168 4.043 1.184 4.957 4.4V32.66h9.649V11.235C94.58 3.767 89.755.2 83.543.4zm38.885 31.543c5.5-2.325 9.2-7.348 9.493-15.213C132.269 7.5 124.05 0 114.335 0S96.569 7.492 96.749 16.733c.216 10.875 7.877 16.733 17.586 16.733 8.952 9.487 21.852 4.614 21.852 4.614L137.448 28c-6.753 5.057-13.098 4.414-15.021 3.945zM106.77 17.538c0-5.035 3.341-9.114 7.462-9.114s7.282 4.08 7.282 9.114-3.16 9.114-7.282 9.114-7.462-4.086-7.462-9.114z" class="cls-2" data-name="Path 23"/>
</svg>
