<svg id="call-answer" xmlns="http://www.w3.org/2000/svg" width="16.286" height="16.249" viewBox="0 0 16.286 16.249">
  <g id="Group_21" data-name="Group 21" transform="translate(0 0)">
    <g id="Group_20" data-name="Group 20" transform="translate(0 0)">
      <path id="Path_21" data-name="Path 21" d="M.365,13.246,2.88,10.73a1.311,1.311,0,0,1,1.849.035L6,12.032l.25-.139a12.609,12.609,0,0,0,3.048-2.2A12.68,12.68,0,0,0,11.5,6.635c.047-.085.092-.167.136-.244l-.85-.849-.418-.419a1.31,1.31,0,0,1-.034-1.849L12.851.759A1.31,1.31,0,0,1,14.7.793l.709.713-.019.019a4.1,4.1,0,0,1,.584,1.03,4.272,4.272,0,0,1,.26,1.045c.332,2.753-.926,5.269-4.34,8.684C7.174,17,3.37,16.647,3.206,16.63a4.25,4.25,0,0,1-1.048-.263,4.085,4.085,0,0,1-1.027-.582l-.015.014L.4,15.1A1.313,1.313,0,0,1,.365,13.246Z" transform="translate(0 -0.394)" fill="#1592e6"/>
    </g>
  </g>
</svg>
