<svg xmlns="http://www.w3.org/2000/svg" width="14.447" height="11.351" viewBox="0 0 14.447 11.351">
  <g id="envelope" transform="translate(0 -54.82)">
    <g id="Group_1" data-name="Group 1" transform="translate(0 54.82)">
      <path id="Path_1" data-name="Path 1" d="M1.387,58.319q.274.193,1.653,1.149t2.112,1.471l.343.246q.262.19.435.306t.419.262a2.432,2.432,0,0,0,.464.217,1.277,1.277,0,0,0,.4.073h.016a1.278,1.278,0,0,0,.4-.073,2.435,2.435,0,0,0,.464-.217q.246-.145.419-.262t.435-.306q.262-.19.343-.246l3.773-2.62a3.83,3.83,0,0,0,.983-.992,2.129,2.129,0,0,0,.4-1.217,1.3,1.3,0,0,0-1.29-1.29H1.29a1.151,1.151,0,0,0-.955.419A1.627,1.627,0,0,0,0,56.287a1.883,1.883,0,0,0,.443,1.1A4,4,0,0,0,1.387,58.319Z" transform="translate(0 -54.82)" fill="#6a6969"/>
      <path id="Path_2" data-name="Path 2" d="M13.641,185.138Q11,186.928,9.626,187.92q-.46.338-.746.528a4.6,4.6,0,0,1-.762.387,2.32,2.32,0,0,1-.887.2H7.216a2.321,2.321,0,0,1-.887-.2,4.6,4.6,0,0,1-.762-.387q-.286-.189-.746-.528-1.088-.8-4.007-2.781a4.27,4.27,0,0,1-.814-.7v6.4a1.242,1.242,0,0,0,.379.911,1.242,1.242,0,0,0,.911.379H13.158a1.294,1.294,0,0,0,1.29-1.29v-6.4A4.446,4.446,0,0,1,13.641,185.138Z" transform="translate(0 -180.777)" fill="#6a6969"/>
    </g>
  </g>
</svg>
