<svg xmlns="http://www.w3.org/2000/svg" width="11.868" height="17.227" viewBox="0 0 11.868 17.227">
    <defs>
        <style>
            .cls-1{fill:#6a6969}
        </style>
    </defs>
    <g id="facebook-placeholder-for-locate-places-on-maps" transform="translate(-66.905)">
        <path id="Facebook_Places" d="M78.493 4.288a5.368 5.368 0 0 0-.278-.689A5.9 5.9 0 0 0 66.9 5.344v.735c0 .031.011.306.026.444.215 1.715 1.568 3.538 2.578 5.252 1.087 1.837 2.216 3.645 3.333 5.451.689-1.179 1.376-2.374 2.05-3.522.184-.337.4-.674.58-1 .122-.214.356-.428.463-.628 1.087-1.991 2.837-4 2.837-5.972V5.3a6.113 6.113 0 0 0-.274-1.012zm-5.687 3.69a2.106 2.106 0 0 1-2.016-1.439A2 2 0 0 1 70.733 6v-.472a1.994 1.994 0 0 1 2.139-1.96 2.169 2.169 0 0 1 2.173 2.205 2.224 2.224 0 0 1-2.239 2.205z" class="cls-1"/>
    </g>
</svg>
