<svg xmlns="http://www.w3.org/2000/svg" width="70.299" height="74.743" viewBox="0 0 70.299 74.743">
  <g id="headphones" transform="translate(-14.15)">
    <path id="Path_50" data-name="Path 50" d="M74.871,28.421V25.548A26.251,26.251,0,0,0,68.025,7.537,23.614,23.614,0,0,0,50.5,0H48.13A23.614,23.614,0,0,0,30.606,7.537,26.251,26.251,0,0,0,23.76,25.548v2.874a10.312,10.312,0,0,0-9.61,10.269v4.491A10.3,10.3,0,0,0,24.435,53.467h5.794a1.89,1.89,0,0,0,1.884-1.884V30.274a1.89,1.89,0,0,0-1.884-1.884h-2.7V25.548c0-12.421,8.856-21.779,20.586-21.779h2.371c11.745,0,20.586,9.359,20.586,21.779V28.39h-2.7a1.89,1.89,0,0,0-1.884,1.884V51.567a1.89,1.89,0,0,0,1.884,1.884h2.638c-.769,9.83-7.537,12.107-10.678,12.625a6.626,6.626,0,0,0-6.3-4.569H49.323a6.619,6.619,0,0,0,0,13.237H54.05a6.627,6.627,0,0,0,6.375-4.868,17.823,17.823,0,0,0,6.391-2.183c3.407-1.994,7.443-6.061,7.977-14.258a10.3,10.3,0,0,0,9.657-10.269V38.675A10.259,10.259,0,0,0,74.871,28.421ZM28.376,49.682h-3.91a6.52,6.52,0,0,1-6.516-6.516V38.675a6.52,6.52,0,0,1,6.516-6.516h3.91ZM54.05,70.975H49.323a2.842,2.842,0,1,1,0-5.684H54.05a2.842,2.842,0,1,1,0,5.684ZM80.7,43.166a6.52,6.52,0,0,1-6.516,6.516H70.27V32.158h3.91A6.52,6.52,0,0,1,80.7,38.675Z" fill="#1592e6"/>
  </g>
</svg>
