<svg xmlns="http://www.w3.org/2000/svg" width="139.643" height="35.1" viewBox="0 0 139.643 35.1">
    <defs>
        <style>
            .cls-1{fill:#444}
        </style>
    </defs>
    <path id="msi-3" d="M126.964 34.909l9.554-26.369a81.224 81.224 0 0 0-14.332 1.47l-9.005 24.9zm-1.653-33.44l-1.836 5.051a81.174 81.174 0 0 1 14.332-1.47L139.643 0a81.174 81.174 0 0 0-14.332 1.47m-49.8 27.193a69.9 69.9 0 0 0 13.227 1.2c4.686 0 7.992-1.013 8.358-4.228.183-1.47-1.287-2.575-3.856-4.045-2.94-1.66-5.506-2.49-8.081-4.235A6.43 6.43 0 0 1 82.31 10c1.013-3.4 3.4-5.326 6.98-7.162C93.518.73 96.824-.1 105-.1a73.084 73.084 0 0 1 14.972 1.47l-1.745 4.777A69.9 69.9 0 0 0 105 4.952c-4.686 0-7.992 1.013-8.358 4.228-.183 1.47 1.287 2.575 3.856 4.045 2.941 1.653 5.509 2.483 8.084 4.228a6.43 6.43 0 0 1 2.849 7.352c-1.013 3.4-3.4 5.326-6.98 7.163-4.228 2.111-7.535 2.941-15.71 2.941a73.084 73.084 0 0 1-14.972-1.47zm-20.76 6.246l7.992-21.958c2.666-7.352-7.071-4.686-9.28-2.941-1.745 1.287-4.869 4.32-5.973 7.535L41.152 35H27.376l7.992-22.05c2.666-7.35-7.068-4.685-9.28-2.94-1.745 1.287-4.869 4.32-5.973 7.535L13.776 35H0L12.678 0c4.411 0 6.8 1.013 8.724 2.941a5.863 5.863 0 0 1 1.47 2.666A39.117 39.117 0 0 1 29.3 2.3 29.194 29.194 0 0 1 40.145 0c4.411 0 6.8 1.013 8.724 2.941a5.863 5.863 0 0 1 1.47 2.666A39.117 39.117 0 0 1 56.771 2.3 29.2 29.2 0 0 1 67.612 0c4.411 0 6.8 1.013 8.724 2.941 2.019 1.928 1.928 5.509 1.2 7.535l-9.009 24.439H54.751z" class="cls-1" transform="translate(0 .1)"/>
</svg>
