<svg xmlns="http://www.w3.org/2000/svg" width="21.907" height="20.862" viewBox="0 0 21.907 20.862">
  <path id="Path_14" data-name="Path 14" d="M219.262-89.608c-.86,1.747-1.591,3.208-1.617,3.233-.052.052-1.643.313-3.573.626a20.224,20.224,0,0,0-3.755.782c-.182.182.626,1.147,2.426,2.973l2.686,2.686-.547,3.1c-.652,3.677-.678,4.277-.182,4.277a23.274,23.274,0,0,0,3.365-1.564,30.465,30.465,0,0,1,3.208-1.564,32.333,32.333,0,0,1,3.233,1.564,27.279,27.279,0,0,0,3.312,1.564c.47,0,.417-1.017-.182-4.432l-.547-2.973,2.686-2.686c1.9-1.9,2.581-2.764,2.4-2.947a18.15,18.15,0,0,0-3.755-.809c-1.929-.287-3.52-.522-3.547-.574-.026-.027-.757-1.486-1.643-3.26-.991-1.981-1.747-3.181-1.981-3.181C220.983-92.79,220.253-91.591,219.262-89.608Z" transform="translate(-210.293 92.79)" fill="#d44753"/>
</svg>
