<svg xmlns="http://www.w3.org/2000/svg" width="23.909" height="22.939" viewBox="0 0 23.909 22.939">
  <path id="Path_11" data-name="Path 11" d="M612.461-100.459a28.016,28.016,0,0,0-1.851,3.365l-1.461,2.9-3.338.443a11.649,11.649,0,0,0-3.781.887c-.965.834-.6,1.617,2.034,4.25l2.5,2.5-.6,3.573c-.547,3.416-.547,3.573-.1,4.068a1.612,1.612,0,0,0,.991.522,19.492,19.492,0,0,0,3.573-1.617l3.051-1.591,3.025,1.591a20.653,20.653,0,0,0,3.52,1.617,1.611,1.611,0,0,0,1.356-1.591c0-.339-.235-1.981-.522-3.625l-.522-2.973,2.633-2.686c2.243-2.269,2.608-2.738,2.451-3.26-.287-.991-.757-1.147-4.329-1.643l-3.442-.47-1.382-2.921a25.018,25.018,0,0,0-1.8-3.365A1.408,1.408,0,0,0,612.461-100.459Zm2.659,5.241,1.434,2.79,3.1.443c1.721.26,3.155.5,3.208.547a17.732,17.732,0,0,1-2.269,2.373l-2.372,2.243.522,3c.313,1.643.547,3.1.547,3.26a9.65,9.65,0,0,1-2.921-1.277l-2.9-1.539-3,1.591c-2.79,1.46-3,1.539-2.843.939.078-.339.339-1.851.6-3.338l.47-2.711-2.425-2.322a23.227,23.227,0,0,1-2.269-2.3c.287,0,5.5-.782,6.024-.912.365-.078.965-.991,1.956-2.973a13.22,13.22,0,0,1,1.539-2.738C613.634-98.06,614.338-96.729,615.12-95.217Z" transform="translate(-601.544 100.893)" fill="#c3c3c3"/>
</svg>
