<svg xmlns="http://www.w3.org/2000/svg" width="22.745" height="19.246" viewBox="0 0 22.745 19.246">
  <g id="shopping-cart-black-shape" transform="translate(0 -36.543)">
    <g id="Group_3" data-name="Group 3" transform="translate(0 36.543)">
      <path id="Path_5" data-name="Path 5" d="M365.446,367.2a1.75,1.75,0,1,0,.513-1.237A1.686,1.686,0,0,0,365.446,367.2Z" transform="translate(-347.95 -349.706)" fill="#d44753"/>
      <path id="Path_6" data-name="Path 6" d="M22.485,38.552a.841.841,0,0,0-.615-.26H5.454q-.014-.1-.062-.348t-.075-.4a2.411,2.411,0,0,0-.1-.362,1.09,1.09,0,0,0-.178-.335.872.872,0,0,0-.273-.212.834.834,0,0,0-.39-.089H.875a.841.841,0,0,0-.615.26.858.858,0,0,0,0,1.23.841.841,0,0,0,.615.26H3.663l2.419,11.25q-.027.055-.28.519t-.4.813a1.5,1.5,0,0,0-.15.54.887.887,0,0,0,.875.875h14a.875.875,0,0,0,0-1.75H7.545a2.639,2.639,0,0,0,.328-.875,1.477,1.477,0,0,0-.034-.3Q7.8,49.2,7.757,49T7.7,48.708l14.271-1.668a.849.849,0,0,0,.56-.294.861.861,0,0,0,.219-.581v-7A.842.842,0,0,0,22.485,38.552Z" transform="translate(0 -36.543)" fill="#d44753"/>
      <path id="Path_7" data-name="Path 7" d="M109.632,367.2a1.75,1.75,0,1,0,.513-1.237A1.684,1.684,0,0,0,109.632,367.2Z" transform="translate(-104.383 -349.706)" fill="#d44753"/>
    </g>
  </g>
</svg>
