<svg xmlns="http://www.w3.org/2000/svg" width="22.745" height="19.246" viewBox="0 0 22.745 19.246">
    <defs>
        <style>
            .cls-1{fill:#fff}
        </style>
    </defs>
    <g id="shopping-cart-black-shape" transform="translate(0 -36.543)">
        <g id="Group_3" data-name="Group 3" transform="translate(0 36.543)">
            <path id="Path_5" d="M365.446 367.2a1.75 1.75 0 1 0 .513-1.237 1.686 1.686 0 0 0-.513 1.237z" class="cls-1" data-name="Path 5" transform="translate(-347.95 -349.706)"/>
            <path id="Path_6" d="M22.485 38.552a.841.841 0 0 0-.615-.26H5.454q-.014-.1-.062-.348t-.075-.4a2.411 2.411 0 0 0-.1-.362 1.09 1.09 0 0 0-.178-.335.872.872 0 0 0-.273-.212.834.834 0 0 0-.39-.089H.875a.841.841 0 0 0-.615.26.858.858 0 0 0 0 1.23.841.841 0 0 0 .615.26h2.788l2.419 11.25q-.027.055-.28.519t-.4.813a1.5 1.5 0 0 0-.15.54.887.887 0 0 0 .875.875h14a.875.875 0 0 0 0-1.75H7.545a2.639 2.639 0 0 0 .328-.875 1.477 1.477 0 0 0-.034-.3Q7.8 49.2 7.757 49t-.057-.292l14.271-1.668a.849.849 0 0 0 .56-.294.861.861 0 0 0 .219-.581v-7a.842.842 0 0 0-.265-.613z" class="cls-1" data-name="Path 6" transform="translate(0 -36.543)"/>
            <path id="Path_7" d="M109.632 367.2a1.75 1.75 0 1 0 .513-1.237 1.684 1.684 0 0 0-.513 1.237z" class="cls-1" data-name="Path 7" transform="translate(-104.383 -349.706)"/>
        </g>
    </g>
</svg>
