<svg xmlns="http://www.w3.org/2000/svg" width="15.34" height="15.341" viewBox="0 0 15.34 15.341">
  <g id="telephone-handle-silhouette" transform="translate(-0.01)">
    <path id="Path_3" data-name="Path 3" d="M15.318,11.887q-.065-.2-.828-.577-.207-.12-.588-.327T13.21,10.6q-.311-.174-.583-.338-.044-.033-.272-.191a3.062,3.062,0,0,0-.387-.234.713.713,0,0,0-.311-.076.9.9,0,0,0-.545.31,5.305,5.305,0,0,0-.6.676,6.569,6.569,0,0,1-.577.675.83.83,0,0,1-.5.311.741.741,0,0,1-.245-.054c-.1-.036-.172-.067-.224-.092s-.138-.076-.261-.153-.193-.118-.207-.125a11.45,11.45,0,0,1-2.56-1.9,11.444,11.444,0,0,1-1.9-2.561q-.011-.022-.125-.207t-.153-.262a2.361,2.361,0,0,1-.093-.223.737.737,0,0,1-.054-.245.83.83,0,0,1,.311-.5A6.562,6.562,0,0,1,4.6,4.837a5.3,5.3,0,0,0,.676-.6.9.9,0,0,0,.31-.545.711.711,0,0,0-.076-.311A3.029,3.029,0,0,0,5.278,3q-.158-.229-.191-.272-.163-.272-.338-.583t-.381-.692q-.207-.381-.327-.588Q3.66.1,3.464.033A.61.61,0,0,0,3.235,0a3.59,3.59,0,0,0-.768.109,4.315,4.315,0,0,0-.746.229A2.921,2.921,0,0,0,.566,1.667,4.224,4.224,0,0,0,.01,3.693a4.208,4.208,0,0,0,.038.572,4.7,4.7,0,0,0,.136.627q.1.349.158.517t.223.6q.163.436.2.534a9.869,9.869,0,0,0,.9,1.907,16.155,16.155,0,0,0,2.348,2.882A16.163,16.163,0,0,0,6.9,13.685a9.884,9.884,0,0,0,1.907.9q.1.033.534.2t.6.223q.169.06.517.158a4.742,4.742,0,0,0,.627.136,4.042,4.042,0,0,0,2.6-.518,2.919,2.919,0,0,0,1.329-1.155,4.291,4.291,0,0,0,.229-.746,3.582,3.582,0,0,0,.109-.768A.608.608,0,0,0,15.318,11.887Z" transform="translate(0 0)" fill="#6a6969"/>
  </g>
</svg>
