<svg xmlns="http://www.w3.org/2000/svg" width="32.039" height="32.04" viewBox="0 0 32.039 32.04">
  <g id="visa" transform="translate(-0.01)">
    <circle id="Ellipse_5" data-name="Ellipse 5" cx="16.019" cy="16.019" r="16.019" transform="translate(0.01 0.001)" fill="#f3f2f2"/>
    <g id="Group_77" data-name="Group 77" transform="translate(5.332 11.739)">
      <path id="Path_1069" data-name="Path 1069" d="M175.483,182.611l1.226-7.238h1.985l-1.226,7.238Z" transform="translate(-168.943 -175.256)" fill="#293688"/>
      <path id="Path_1070" data-name="Path 1070" d="M227.2,173.951a5.154,5.154,0,0,0-1.779-.3c-1.961,0-3.343.982-3.355,2.389-.011,1.04.986,1.62,1.74,1.966.772.354,1.032.581,1.028.9,0,.485-.617.707-1.188.707a4.188,4.188,0,0,1-1.868-.38l-.256-.115-.279,1.62a6.313,6.313,0,0,0,2.211.386c2.086,0,3.441-.97,3.456-2.473.008-.823-.521-1.45-1.666-1.967-.694-.334-1.119-.558-1.114-.9,0-.3.36-.622,1.137-.622a3.68,3.68,0,0,1,1.486.277l.178.083.27-1.569Z" transform="translate(-211.608 -173.647)" fill="#293688"/>
      <path id="Path_1071" data-name="Path 1071" d="M304.658,175.373a.986.986,0,0,0-1.028.616l-2.941,6.622h2.1l.409-1.109h2.51l.233,1.109h1.868l-1.634-7.238h-1.518Zm-.9,4.681c.164-.417.79-2.023.79-2.023-.011.019.163-.419.263-.691l.134.624.459,2.09h-1.647Z" transform="translate(-285.685 -175.256)" fill="#293688"/>
      <path id="Path_1072" data-name="Path 1072" d="M81.66,180.335l-.175-.992a5.654,5.654,0,0,0-2.746-3.035l1.753,6.3h2.1l3.152-7.238h-2.1Z" transform="translate(-78.739 -175.256)" fill="#293688"/>
    </g>
    <g id="Group_78" data-name="Group 78" transform="translate(1.814 11.855)">
      <path id="Path_1073" data-name="Path 1073" d="M46.823,175.373v.117a6.776,6.776,0,0,1,4.9,3.853l-.72-3.352a.853.853,0,0,0-.915-.618Z" transform="translate(-45.462 -175.373)" fill="#f7981d"/>
      <path id="Path_1074" data-name="Path 1074" d="M40.91,354.867a16.014,16.014,0,0,0,14.215-8.634H26.7A16.014,16.014,0,0,0,40.91,354.867Z" transform="translate(-26.696 -334.683)" fill="#f7981d"/>
    </g>
    <path id="Path_1075" data-name="Path 1075" d="M42.637,0A16.016,16.016,0,0,0,28.548,8.389H56.727A16.018,16.018,0,0,0,42.637,0Z" transform="translate(-26.609)" fill="#293688"/>
  </g>
</svg>
