<svg xmlns="http://www.w3.org/2000/svg" width="136.8" height="27" viewBox="0 0 136.8 27">
    <defs>
        <style>
            .cls-1{fill:#444}
        </style>
    </defs>
    <path id="wordmark-black-medium" d="M69.094 23.986c0 .475 0 .583.32.875l1.795 1.771v.076h-7.957v-3.4A5.536 5.536 0 0 1 57.975 27c-4.091 0-7.06-3.24-7.06-9.2 0-5.584 3.2-9.31 7.7-9.31a4.7 4.7 0 0 1 4.625 2.894V3.877a.934.934 0 0 0-.363-.907l-1.708-1.663v-.076l7.925-.94zm-5.842-1.08v-11.2a2.967 2.967 0 0 0-2.371-1.123c-1.933 0-3.8 1.771-3.8 7.031 0 4.925 1.613 6.664 3.621 6.664a3.2 3.2 0 0 0 2.552-1.372zm11.119 3.8V11.588a1.022 1.022 0 0 0-.32-.907l-1.764-1.836v-.076h7.957v15.336c0 .475 0 .583.32.875l1.752 1.663v.076zM74.082 3.24a3.2 3.2 0 1 1 6.408 0 3.2 3.2 0 1 1-6.408 0zm27.631 20.714c0 .475 0 .616.32.907l1.795 1.771v.076h-8v-3.877A5.8 5.8 0 0 1 90.349 27C86.8 27 84.9 24.386 84.9 19.44c0-2.387 0-5 .075-7.938a.923.923 0 0 0-.32-.875l-1.761-1.782v-.076h7.893v9.86c0 3.24.47 5.4 2.478 5.4a3.2 3.2 0 0 0 2.584-1.629V11.6a1.022 1.022 0 0 0-.32-.907l-1.773-1.848v-.076h7.957zm27.087 2.754c0-.583.107-8.014.107-9.72 0-3.24-.5-5.476-2.756-5.476a3.568 3.568 0 0 0-2.83 1.555 13.327 13.327 0 0 1 .32 3.078c0 2.246-.075 5.108-.107 7.97a.923.923 0 0 0 .32.875l1.795 1.663v.076h-8.032c0-.54.107-8.014.107-9.72 0-3.294-.5-5.476-2.723-5.476a3.2 3.2 0 0 0-2.649 1.6v11.015c0 .475 0 .583.32.875l1.752 1.663v.076h-7.947v-15.12a1.022 1.022 0 0 0-.32-.907l-1.763-1.89v-.076h7.957v3.845a5.71 5.71 0 0 1 5.7-4.136c2.649 0 4.443 1.49 5.2 4.32a6.2 6.2 0 0 1 5.981-4.32c3.546 0 5.554 2.646 5.554 7.646 0 2.387-.075 5.108-.107 7.97a.868.868 0 0 0 .363.875l1.752 1.663v.076zm-99.962-2.354l2.362 2.278v.076H19.225v-.076l2.4-2.279a.923.923 0 0 0 .32-.875V8.91a15.338 15.338 0 0 1 .107-2.16L13.981 27h-.1L5.522 8.37c-.182-.464-.235-.5-.353-.81v12.215a4.286 4.286 0 0 0 .4 2.387l3.364 4.471v.076H0v-.076l3.365-4.482a4.3 4.3 0 0 0 .395-2.376v-13.5a2.634 2.634 0 0 0-.56-1.847L.823 1.307v-.076h8.544l7.156 15.779 6.3-15.779h8.363v.076l-2.35 2.646a.934.934 0 0 0-.363.907v18.619a.868.868 0 0 0 .364.875zm9.367-7.3v.076c0 4.622 2.361 6.48 5.127 6.48a5.814 5.814 0 0 0 5.447-3.337h.075C47.893 24.84 45.094 27 40.907 27c-4.518 0-8.78-2.754-8.78-9.137 0-6.707 4.272-9.385 8.993-9.385 3.8 0 7.85 1.814 7.85 7.646v.929zm0-.929h5.266v-.94c0-4.752-.972-6.016-2.435-6.016-1.773 0-2.852 1.89-2.852 6.955z" class="cls-1"/>
</svg>
